<svg width="82" height="36" viewBox="0 0 82 36" fill="none" xmlns="http://www.w3.org/2000/svg">
<path d="M26.668 23.144V29.288H23.068V35H16.396V29.288H0.508V23.144L11.692 1.4H18.796L7.66 23.144H16.396V15.176H23.068V23.144H26.668ZM42.4638 35.672C38.2718 35.672 34.9758 34.088 32.5758 30.92C30.2078 27.72 29.0238 23.48 29.0238 18.2C29.0238 12.92 30.2078 8.696 32.5758 5.528C34.9758 2.328 38.2718 0.727998 42.4638 0.727998C46.6878 0.727998 49.9838 2.328 52.3518 5.528C54.7198 8.696 55.9038 12.92 55.9038 18.2C55.9038 23.48 54.7198 27.72 52.3518 30.92C49.9838 34.088 46.6878 35.672 42.4638 35.672ZM37.3758 26.408C38.5278 28.264 40.2238 29.192 42.4638 29.192C44.7038 29.192 46.3998 28.248 47.5518 26.36C48.7358 24.472 49.3278 21.752 49.3278 18.2C49.3278 14.616 48.7358 11.88 47.5518 9.992C46.3998 8.104 44.7038 7.16 42.4638 7.16C40.2238 7.16 38.5278 8.104 37.3758 9.992C36.2238 11.88 35.6478 14.616 35.6478 18.2C35.6478 21.784 36.2238 24.52 37.3758 26.408ZM81.7221 15.272V21.08H73.8021V29H67.9941V21.08H60.1221V15.272H67.9941V7.4H73.8021V15.272H81.7221Z" fill="#000001"/>
</svg>
