<svg width="74" height="35" viewBox="0 0 74 35" fill="none" xmlns="http://www.w3.org/2000/svg">
<path d="M12.94 12.64C16.172 12.64 18.892 13.616 21.1 15.568C23.308 17.488 24.412 20.176 24.412 23.632C24.412 27.088 23.244 29.792 20.908 31.744C18.604 33.696 15.772 34.672 12.412 34.672C9.692 34.672 7.292 34.064 5.212 32.848C3.132 31.632 1.628 29.84 0.7 27.472L6.364 24.16C7.196 26.848 9.212 28.192 12.412 28.192C14.108 28.192 15.42 27.792 16.348 26.992C17.308 26.16 17.788 25.04 17.788 23.632C17.788 22.256 17.324 21.152 16.396 20.32C15.468 19.488 14.204 19.072 12.604 19.072H2.428L3.772 0.399998H22.828V6.592H9.916L9.484 12.64H12.94ZM50.7569 34H43.5569L34.8209 23.104V34H28.6289V0.399998H34.8209V20.56L43.0769 10H50.4689L40.8209 21.856L50.7569 34ZM73.2378 14.272V20.08H65.3178V28H59.5098V20.08H51.6378V14.272H59.5098V6.4H65.3178V14.272H73.2378Z" fill="#000001"/>
</svg>
