<svg width="111" height="36" viewBox="0 0 111 36" fill="none" xmlns="http://www.w3.org/2000/svg">
<path d="M12.68 12.296C16.168 12.392 19 13.528 21.176 15.704C23.352 17.848 24.44 20.6 24.44 23.96C24.44 27.384 23.304 30.2 21.032 32.408C18.76 34.584 15.832 35.672 12.248 35.672C8.664 35.672 5.736 34.584 3.464 32.408C1.224 30.232 0.104 27.416 0.104 23.96C0.104 21.4 0.76 19.144 2.072 17.192L12.536 1.4H20.12L12.68 12.296ZM8.264 27.944C9.32 28.936 10.648 29.432 12.248 29.432C13.848 29.432 15.176 28.936 16.232 27.944C17.32 26.952 17.864 25.624 17.864 23.96C17.864 22.328 17.32 21.016 16.232 20.024C15.176 19.032 13.848 18.536 12.248 18.536C10.648 18.536 9.32 19.032 8.264 20.024C7.208 20.984 6.68 22.296 6.68 23.96C6.68 25.624 7.208 26.952 8.264 27.944ZM40.6513 35.672C36.4593 35.672 33.1633 34.088 30.7633 30.92C28.3953 27.72 27.2113 23.48 27.2113 18.2C27.2113 12.92 28.3953 8.696 30.7633 5.528C33.1633 2.328 36.4593 0.727998 40.6513 0.727998C44.8753 0.727998 48.1713 2.328 50.5393 5.528C52.9073 8.696 54.0913 12.92 54.0913 18.2C54.0913 23.48 52.9073 27.72 50.5393 30.92C48.1713 34.088 44.8753 35.672 40.6513 35.672ZM35.5633 26.408C36.7153 28.264 38.4113 29.192 40.6513 29.192C42.8913 29.192 44.5873 28.248 45.7393 26.36C46.9233 24.472 47.5153 21.752 47.5153 18.2C47.5153 14.616 46.9233 11.88 45.7393 9.992C44.5873 8.104 42.8913 7.16 40.6513 7.16C38.4113 7.16 36.7153 8.104 35.5633 9.992C34.4113 11.88 33.8353 14.616 33.8353 18.2C33.8353 21.784 34.4113 24.52 35.5633 26.408ZM70.8856 35.672C66.6936 35.672 63.3976 34.088 60.9976 30.92C58.6296 27.72 57.4456 23.48 57.4456 18.2C57.4456 12.92 58.6296 8.696 60.9976 5.528C63.3976 2.328 66.6936 0.727998 70.8856 0.727998C75.1096 0.727998 78.4056 2.328 80.7736 5.528C83.1416 8.696 84.3256 12.92 84.3256 18.2C84.3256 23.48 83.1416 27.72 80.7736 30.92C78.4056 34.088 75.1096 35.672 70.8856 35.672ZM65.7976 26.408C66.9496 28.264 68.6456 29.192 70.8856 29.192C73.1256 29.192 74.8216 28.248 75.9736 26.36C77.1576 24.472 77.7496 21.752 77.7496 18.2C77.7496 14.616 77.1576 11.88 75.9736 9.992C74.8216 8.104 73.1256 7.16 70.8856 7.16C68.6456 7.16 66.9496 8.104 65.7976 9.992C64.6456 11.88 64.0696 14.616 64.0696 18.2C64.0696 21.784 64.6456 24.52 65.7976 26.408ZM110.144 15.272V21.08H102.224V29H96.416V21.08H88.544V15.272H96.416V7.4H102.224V15.272H110.144Z" fill="#000001"/>
</svg>
